<svg width="256" height="256" viewBox="0 0 256 256" fill="none" xmlns="http://www.w3.org/2000/svg">
<path d="M120.889 132.4C132.671 132.4 142.223 142.98 142.223 156.031V163.908C142.223 194.966 115.776 226.923 71.1113 226.923C26.4464 226.923 0 194.966 0 163.908V156.031C0 142.98 9.55128 132.4 21.3334 132.4H120.889ZM71.1113 30C92.7118 30 110.222 49.3964 110.222 73.3232C110.222 97.2499 92.7118 116.646 71.1113 116.646C49.5107 116.646 32.0001 97.2499 32.0001 73.3232C32.0001 49.3964 49.5107 30 71.1113 30Z" fill="#4343EF"/>
<path d="M177.779 132.4C189.561 132.4 199.113 142.98 199.113 156.031V163.908C199.113 194.966 172.666 226.923 128.001 226.923C83.3364 226.923 56.89 194.966 56.89 163.908V156.031C56.89 142.98 66.4413 132.4 78.2234 132.4H177.779ZM128.001 30C149.602 30 167.112 49.3964 167.112 73.3232C167.112 97.2499 149.602 116.646 128.001 116.646C106.401 116.646 88.8901 97.2499 88.8901 73.3232C88.8901 49.3964 106.401 30 128.001 30Z" fill="#F76A3E"/>
<path d="M234.667 132.4C246.449 132.4 256 142.98 256 156.031V163.908C256 194.966 229.554 226.923 184.889 226.923C140.224 226.923 113.777 194.966 113.777 163.908V156.031C113.777 142.98 123.329 132.4 135.111 132.4H234.667ZM184.889 30C206.489 30 224 49.3964 224 73.3232C224 97.2499 206.489 116.646 184.889 116.646C163.288 116.646 145.778 97.2499 145.778 73.3232C145.778 49.3964 163.288 30 184.889 30Z" fill="#FFCD1D"/>
</svg>
